Coordinates
version=1
nRows=17
nColumns=24
inDegrees=yes

Units are S.I. units (second, meters, Newtons, ...)
Angles are in degrees.

endheader
time	pelvis_tilt	pelvis_list	pelvis_rotation	pelvis_tx	pelvis_ty	pelvis_tz	hip_flexion_r	hip_adduction_r	hip_rotation_r	knee_angle_r	ankle_angle_r	subtalar_angle_r	mtp_angle_r	hip_flexion_l	hip_adduction_l	hip_rotation_l	knee_angle_l	ankle_angle_l	subtalar_angle_l	mtp_angle_l	lumbar_extension	lumbar_bending	lumbar_rotation
      2.60000000	     -7.30999321	     -1.26443190	      2.00177940	      0.49969987	      1.22093174	     -0.80943288	      0.93107735	      6.50853037	     -3.62743123	    -36.07128505	      2.78955949	      8.62427297	     26.33812055	     32.37504291	      9.12879147	     11.93939552	    -22.82156699	     -9.76297427	     -7.90898468	      8.86001555	     -5.26826752	     -0.01691065	      5.16871467
      2.60500000	     -7.25578982	     -0.95758794	      2.18937267	      0.50606128	      1.22136151	     -0.81003764	      1.77456393	      5.79641376	     -4.54067823	    -38.08510142	      1.45211747	      8.74009234	     26.94960076	     32.04688494	      9.63853425	     12.13097378	    -23.29475668	     -9.45416779	     -8.01641648	      8.82872326	     -5.21219002	     -0.40646731	      5.04950132
      2.61000000	     -7.13070193	     -0.61881964	      2.35318835	      0.51240114	      1.22195891	     -0.81052793	      2.53509905	      5.05871170	     -5.32828551	    -40.01920488	     -0.02249939	      8.65091975	     27.26985880	     31.52685351	     10.12010205	     12.25921015	    -23.55802683	     -9.13178039	     -7.99422824	      8.86468002	     -5.23621270	     -0.83912073	      4.94301035
      2.61500000	     -7.05187988	     -0.28156447	      2.53892618	      0.51871491	      1.22248974	     -0.81107243	      3.36319642	      4.30132316	     -6.08135691	    -41.92455277	     -1.44102395	      8.45700328	     27.44446423	     31.03711186	     10.61144186	     12.39060562	    -23.78540613	     -8.76212139	     -7.97205630	      8.90578317	     -5.20645890	     -1.26291531	      4.82026927
      2.62000000	     -7.07641412	      0.00453702	      2.72767027	      0.52492947	      1.22287260	     -0.81165183	      4.34820819	      3.60038250	     -6.75554662	    -43.83020886	     -2.82646577	      7.99418426	     27.18208584	     30.68814933	     11.05922093	     12.50029935	    -24.04956302	     -8.33338409	     -7.97319639	      8.89549800	     -5.07894237	     -1.62202237	      4.68861645
      2.62500000	     -7.06083368	      0.30275066	      2.89979867	      0.53110914	      1.22335217	     -0.81216327	      5.27944719	      2.90350520	     -7.32409201	    -45.64523263	     -4.17375232	      7.40838689	     26.50688186	     30.22886172	     11.47687204	     12.55284864	    -24.18764410	     -7.87311337	     -7.84460948	      8.92443051	     -4.99749503	     -1.99503136	      4.56629748
      2.63000000	     -7.03083234	      0.58393410	      3.06339368	      0.53724410	      1.22387934	     -0.81266580	      6.18893925	      2.23916765	     -7.79938306	    -47.37205120	     -5.45146791	      6.84482603	     25.37364777	     29.70108182	     11.85294305	     12.59548907	    -24.22734888	     -7.33750093	     -7.60702717	      8.96508434	     -4.92902166	     -2.34220075	      4.48348623
      2.63500000	     -7.00415923	      0.85952490	      3.23889993	      0.54329774	      1.22438003	     -0.81316451	      7.11063540	      1.58678876	     -8.23996807	    -49.04543063	     -6.47638888	      6.13272180	     24.14709340	     29.18757364	     12.21469306	     12.56749254	    -24.26764658	     -6.83527207	     -7.33046083	      9.01350909	     -4.87764964	     -2.67724904	      4.31073995
      2.64000000	     -7.03668626	      1.08456571	      3.40290703	      0.54925009	      1.22482970	     -0.81367189	      8.11873641	      1.01472218	     -8.59031805	    -50.63642305	     -7.27553275	      5.10913052	     23.34419677	     28.73542059	     12.52533545	     12.56958488	    -24.28726922	     -6.35438523	     -7.16713280	      9.08733627	     -4.76904593	     -2.95416378	      4.17905358
      2.64500000	     -7.02642961	      1.29538372	      3.56095550	      0.55516315	      1.22536910	     -0.81413541	      9.06005675	      0.48564891	     -8.87065420	    -52.12074137	     -8.01995274	      4.27029306	     21.66459019	     28.20231766	     12.78665382	     12.52173686	    -24.23956191	     -5.76020279	     -6.71126753	      9.15583701	     -4.70992551	     -3.21082561	      4.03221452
      2.65000000	     -7.04565687	      1.46841672	      3.70772751	      0.56096737	      1.22586869	     -0.81459928	     10.05360384	      0.01766938	     -9.09831869	    -53.52586094	     -8.51305908	      3.20762835	     20.38142930	     27.71564749	     13.00799886	     12.47230637	    -24.19952497	     -5.21396429	     -6.35800798	      9.20136863	     -4.63420130	     -3.42153887	      3.88613173
      2.65500000	     -7.07447155	      1.60710053	      3.84443731	      0.56669364	      1.22637961	     -0.81504770	     11.06006373	     -0.38463177	     -9.26355699	    -54.82392662	     -8.85212779	      2.08317136	     19.15516264	     27.23828252	     13.18393020	     12.41463559	    -24.14393232	     -4.66419027	     -5.98786606	      9.26771622	     -4.55477514	     -3.59000675	      3.74341782
      2.66000000	     -7.10601388	      1.71861152	      3.96742087	      0.57233578	      1.22689997	     -0.81546998	     12.07481161	     -0.73171603	     -9.37895894	    -56.02207742	     -9.02704456	      0.93533875	     17.95803642	     26.77467312	     13.32078454	     12.33425917	    -24.09294585	     -4.12444958	     -5.59768731	      9.31708177	     -4.48603648	     -3.72285300	      3.59301901
      2.66500000	     -7.17106201	      1.80384485	      4.06613271	      0.57788448	      1.22739266	     -0.81587014	     13.14701045	     -1.02400301	     -9.42717915	    -57.12498031	     -9.07145217	     -0.29816759	     17.19680526	     26.35640063	     13.42620858	     12.25205196	    -24.03658716	     -3.67547657	     -5.37082004	      9.38332060	     -4.39286284	     -3.82189341	      3.44193750
      2.67000000	     -7.21787893	      1.85655052	      4.15580649	      0.58337930	      1.22793013	     -0.81623214	     14.18635994	     -1.24954631	     -9.44162592	    -58.10460078	     -9.03243062	     -1.47254470	     16.16121109	     25.92229418	     13.48347830	     12.16075384	    -23.98084277	     -3.14734578	     -4.98011784	      9.46116244	     -4.32294265	     -3.88386842	      3.28923471
      2.67500000	     -7.26354204	      1.89640949	      4.23329814	      0.58879738	      1.22845626	     -0.81656877	     15.22737090	     -1.44202198	     -9.42268567	    -58.98695858	     -8.83822874	     -2.53554332	     15.20837665	     25.49004205	     13.52226567	     12.07493249	    -23.91757537	     -2.64615223	     -4.61515533	      9.50093863	     -4.27298850	     -3.92885466	      3.12828196
      2.68000000	     -7.30749253	      1.91695392	      4.29421302	      0.59415142	      1.22898792	     -0.81688218	     16.26594294	     -1.58929132	     -9.36595898	    -59.75864327	     -8.53582877	     -3.50979665	     14.36037526	     25.06327196	     13.53723160	     11.99733962	    -23.85875276	     -2.15847556	     -4.28116487	      9.52982240	     -4.23438422	     -3.94493127	      2.96706657
